<?xml version="1.0" standalone="no"?><svg xmlns:xlink="http://www.w3.org/1999/xlink" xmlns="http://www.w3.org/2000/svg" viewBox="0 0 1000 600.0004958681784" preserveAspectRatio="xMaxYMax slice"><g transform="scale(2.479340892017266)"><rect x="0" y="0" width="403.33333333333337" height="242" fill="#F2FFE9"/><path d="M 161.33 40.33 A 40.33 40.33 0 0 1  201.66000000000003 80.66 L 161.33 40.33 A 40.33 40.33 0 0 0 201.66000000000003 80.66" fill="#bfd5b9"/><path d="M 322.67 80.66 A 40.33 40.33 0 0 1  363 40.33 L 322.67 80.66 A 40.33 40.33 0 0 0 363 40.33" fill="#eac8cb"/><rect x="0" y="80.66666666666667" width="40.333333333333336" height="40.333333333333336" fill="#F2FFE9"/><path d="M 282.33 121 A 40.33 40.33 0 0 1  322.65999999999997 80.67 L 282.33 121 A 40.33 40.33 0 0 0 322.65999999999997 80.67" fill="#608660"/><path d="M 363 121 A 40.33 40.33 0 0 1  403.33 80.67 L 363 121 A 40.33 40.33 0 0 0 403.33 80.67" fill="#efebde"/><path d="M 40.33 161.32999999999998 A 40.33 40.33 0 0 1  80.66 121 L 40.33 161.32999999999998 A 40.33 40.33 0 0 0 80.66 121" fill="#5f855f"/><rect x="80.66666666666667" y="121" width="40.333333333333336" height="40.333333333333336" fill="#F2FFE9"/><path d="M 100.83 141.17000000000002 A 20.17 20.17 0 0 1  121 121 L 100.83 141.17000000000002 A 20.17 20.17 0 0 0 121 121" fill="#82a27f"/><path d="M 100.83 141.17 A 20.17 20.17 0 0 1  121 161.33999999999997 L 100.83 141.17 A 20.17 20.17 0 0 0 121 161.33999999999997" fill="#ede1d9"/><path d="M 201.67 161.32999999999998 A 40.33 40.33 0 0 1  242 121 L 201.67 161.32999999999998 A 40.33 40.33 0 0 0 242 121" fill="#799a77"/><path d="M 242 161.32999999999998 A 40.33 40.33 0 0 1  282.33 121 L 242 161.32999999999998 A 40.33 40.33 0 0 0 282.33 121" fill="#c3d8bd"/><rect x="282.33333333333337" y="121" width="40.333333333333336" height="40.333333333333336" fill="#F2FFE9"/><path d="M 282.33 141.17000000000002 A 20.17 20.17 0 0 1  302.5 121 L 282.33 141.17000000000002 A 20.17 20.17 0 0 0 302.5 121" fill="#99b595"/><path d="M 302.5 141.17000000000002 A 20.17 20.17 0 0 1  322.67 121 L 302.5 141.17000000000002 A 20.17 20.17 0 0 0 322.67 121" fill="#d7e9d0"/><path d="M 282.33 161.33999999999997 A 20.17 20.17 0 0 1  302.5 141.17 L 282.33 161.33999999999997 A 20.17 20.17 0 0 0 302.5 141.17" fill="#efeddf"/><path d="M 302.5 161.33999999999997 A 20.17 20.17 0 0 1  322.67 141.17 L 302.5 161.33999999999997 A 20.17 20.17 0 0 0 322.67 141.17" fill="#7a9b78"/><path d="M 322.67 161.32999999999998 A 40.33 40.33 0 0 1  363 121 L 322.67 161.32999999999998 A 40.33 40.33 0 0 0 363 121" fill="#c3d7bc"/><path d="M 0 201.66000000000003 A 40.33 40.33 0 0 1  40.33 161.33 L 0 201.66000000000003 A 40.33 40.33 0 0 0 40.33 161.33" fill="#e7bac3"/><path d="M 40.33 161.33 A 40.33 40.33 0 0 1  80.66 201.66000000000003 L 40.33 161.33 A 40.33 40.33 0 0 0 80.66 201.66000000000003" fill="#b8cfb2"/><rect x="80.66666666666667" y="161.33333333333334" width="40.333333333333336" height="40.333333333333336" fill="#F2FFE9"/><path d="M 80.67 161.33 A 20.17 20.17 0 0 1  100.84 181.5 L 80.67 161.33 A 20.17 20.17 0 0 0 100.84 181.5" fill="#c5d9be"/><path d="M 100.83 181.5 A 20.17 20.17 0 0 1  121 161.33 L 100.83 181.5 A 20.17 20.17 0 0 0 121 161.33" fill="#e7f5de"/><path d="M 80.67 201.67000000000002 A 20.17 20.17 0 0 1  100.84 181.5 L 80.67 201.67000000000002 A 20.17 20.17 0 0 0 100.84 181.5" fill="#efeddf"/><path d="M 100.83 201.67000000000002 A 20.17 20.17 0 0 1  121 181.5 L 100.83 201.67000000000002 A 20.17 20.17 0 0 0 121 181.5" fill="#ebd1d0"/><path d="M 161.33 201.66000000000003 A 40.33 40.33 0 0 1  201.66000000000003 161.33 L 161.33 201.66000000000003 A 40.33 40.33 0 0 0 201.66000000000003 161.33" fill="#c0d5ba"/><path d="M 282.33 161.33 A 40.33 40.33 0 0 1  322.65999999999997 201.66000000000003 L 282.33 161.33 A 40.33 40.33 0 0 0 322.65999999999997 201.66000000000003" fill="#9fba9b"/><rect x="322.6666666666667" y="161.33333333333334" width="40.333333333333336" height="40.333333333333336" fill="#F2FFE9"/><path d="M 322.67 161.33 A 20.17 20.17 0 0 1  342.84000000000003 181.5 L 322.67 161.33 A 20.17 20.17 0 0 0 342.84000000000003 181.5" fill="#7f9f7d"/><path d="M 322.67 201.67000000000002 A 20.17 20.17 0 0 1  342.84000000000003 181.5 L 322.67 201.67000000000002 A 20.17 20.17 0 0 0 342.84000000000003 181.5" fill="#e39db3"/><path d="M 342.83 201.67000000000002 A 20.17 20.17 0 0 1  363 181.5 L 342.83 201.67000000000002 A 20.17 20.17 0 0 0 363 181.5" fill="#e8bfc5"/><path d="M 363 201.66000000000003 A 40.33 40.33 0 0 1  403.33 161.33 L 363 201.66000000000003 A 40.33 40.33 0 0 0 403.33 161.33" fill="#e296af"/><rect x="0" y="201.66666666666669" width="40.333333333333336" height="40.333333333333336" fill="#F2FFE9"/><path d="M 0 201.67 A 20.17 20.17 0 0 1  20.17 221.83999999999997 L 0 201.67 A 20.17 20.17 0 0 0 20.17 221.83999999999997" fill="#f2ffe9"/><path d="M 20.17 201.67 A 20.17 20.17 0 0 1  40.34 221.83999999999997 L 20.17 201.67 A 20.17 20.17 0 0 0 40.34 221.83999999999997" fill="#f1fce7"/><path d="M 0 242 A 20.17 20.17 0 0 1  20.17 221.83 L 0 242 A 20.17 20.17 0 0 0 20.17 221.83" fill="#dbecd3"/><path d="M 20.17 242 A 20.17 20.17 0 0 1  40.34 221.83 L 20.17 242 A 20.17 20.17 0 0 0 40.34 221.83" fill="#ebd4d1"/><path d="M 40.33 242 A 40.33 40.33 0 0 1  80.66 201.67 L 40.33 242 A 40.33 40.33 0 0 0 80.66 201.67" fill="#739571"/><path d="M 80.67 201.67 A 40.33 40.33 0 0 1  121 242 L 80.67 201.67 A 40.33 40.33 0 0 0 121 242" fill="#8daa89"/><path d="M 121 242 A 40.33 40.33 0 0 1  161.32999999999998 201.67 L 121 242 A 40.33 40.33 0 0 0 161.32999999999998 201.67" fill="#e8bcc4"/><rect x="161.33333333333334" y="201.66666666666669" width="40.333333333333336" height="40.333333333333336" fill="#F2FFE9"/><path d="M 161.33 201.67 A 20.17 20.17 0 0 1  181.5 221.83999999999997 L 161.33 201.67 A 20.17 20.17 0 0 0 181.5 221.83999999999997" fill="#e7bbc4"/><path d="M 181.5 221.83999999999997 A 20.17 20.17 0 0 1  201.67000000000002 201.67 L 181.5 221.83999999999997 A 20.17 20.17 0 0 0 201.67000000000002 201.67" fill="#e4a4b6"/><path d="M 161.33 242 A 20.17 20.17 0 0 1  181.5 221.83 L 161.33 242 A 20.17 20.17 0 0 0 181.5 221.83" fill="#d7e9d0"/><path d="M 181.5 221.83 A 20.17 20.17 0 0 1  201.67000000000002 242 L 181.5 221.83 A 20.17 20.17 0 0 0 201.67000000000002 242" fill="#7f9f7c"/><rect x="201.66666666666669" y="201.66666666666669" width="40.333333333333336" height="40.333333333333336" fill="#F2FFE9"/><path d="M 201.67 201.67 A 20.17 20.17 0 0 1  221.83999999999997 221.83999999999997 L 201.67 201.67 A 20.17 20.17 0 0 0 221.83999999999997 221.83999999999997" fill="#9bb697"/><path d="M 221.83 201.67 A 20.17 20.17 0 0 1  242 221.83999999999997 L 221.83 201.67 A 20.17 20.17 0 0 0 242 221.83999999999997" fill="#caddc3"/><path d="M 201.67 242 A 20.17 20.17 0 0 1  221.83999999999997 221.83 L 201.67 242 A 20.17 20.17 0 0 0 221.83999999999997 221.83" fill="#7f9f7c"/><path d="M 221.83 221.83 A 20.17 20.17 0 0 1  242 242 L 221.83 221.83 A 20.17 20.17 0 0 0 242 242" fill="#b1c9ac"/><rect x="242" y="201.66666666666669" width="40.333333333333336" height="40.333333333333336" fill="#F2FFE9"/><path d="M 242 201.67 A 20.17 20.17 0 0 1  262.17 221.83999999999997 L 242 201.67 A 20.17 20.17 0 0 0 262.17 221.83999999999997" fill="#7f9f7c"/><path d="M 262.17 221.83999999999997 A 20.17 20.17 0 0 1  282.34000000000003 201.67 L 262.17 221.83999999999997 A 20.17 20.17 0 0 0 282.34000000000003 201.67" fill="#e8f7e0"/><path d="M 242 242 A 20.17 20.17 0 0 1  262.17 221.83 L 242 242 A 20.17 20.17 0 0 0 262.17 221.83" fill="#95b292"/><path d="M 262.17 221.83 A 20.17 20.17 0 0 1  282.34000000000003 242 L 262.17 221.83 A 20.17 20.17 0 0 0 282.34000000000003 242" fill="#90ad8d"/><rect x="282.33333333333337" y="201.66666666666669" width="40.333333333333336" height="40.333333333333336" fill="#F2FFE9"/><path d="M 282.33 221.83999999999997 A 20.17 20.17 0 0 1  302.5 201.67 L 282.33 221.83999999999997 A 20.17 20.17 0 0 0 302.5 201.67" fill="#d0e3c9"/><path d="M 302.5 221.83999999999997 A 20.17 20.17 0 0 1  322.67 201.67 L 302.5 221.83999999999997 A 20.17 20.17 0 0 0 322.67 201.67" fill="#e39cb2"/><path d="M 282.33 242 A 20.17 20.17 0 0 1  302.5 221.83 L 282.33 242 A 20.17 20.17 0 0 0 302.5 221.83" fill="#dd779e"/><path d="M 302.5 242 A 20.17 20.17 0 0 1  322.67 221.83 L 302.5 242 A 20.17 20.17 0 0 0 322.67 221.83" fill="#de80a3"/><path d="M 322.67 201.67 A 40.33 40.33 0 0 1  363 242 L 322.67 201.67 A 40.33 40.33 0 0 0 363 242" fill="#c8dcc1"/><rect x="363" y="201.66666666666669" width="40.333333333333336" height="40.333333333333336" fill="#F2FFE9"/><path d="M 363 221.83999999999997 A 20.17 20.17 0 0 1  383.17 201.67 L 363 221.83999999999997 A 20.17 20.17 0 0 0 383.17 201.67" fill="#e6b5c0"/><path d="M 383.17 221.83999999999997 A 20.17 20.17 0 0 1  403.34000000000003 201.67 L 383.17 221.83999999999997 A 20.17 20.17 0 0 0 403.34000000000003 201.67" fill="#bad0b4"/><path d="M 363 221.83 A 20.17 20.17 0 0 1  383.17 242 L 363 221.83 A 20.17 20.17 0 0 0 383.17 242" fill="#9fb99a"/><path d="M 383.17 221.83 A 20.17 20.17 0 0 1  403.34000000000003 242 L 383.17 221.83 A 20.17 20.17 0 0 0 403.34000000000003 242" fill="#ebd2d0"/></g></svg>