<svg xmlns="http://www.w3.org/2000/svg" width="375" viewBox="0 0 375 375" height="375" version="1.0"><path fill="#A6CF98" d="M 172.203125 114.742188 C 164.886719 115.046875 157.367188 117.753906 150.738281 123.820312 C 136.183594 113.632812 119.523438 117.351562 109.011719 126.085938 C 98.339844 134.980469 91.871094 150.664062 99.472656 166.996094 C 91.707031 172.820312 87.019531 181.066406 86.210938 190.445312 C 85.078125 201.765625 89.609375 213.574219 98.179688 221.011719 C 101.574219 223.921875 105.292969 226.1875 109.335938 227.480469 C 111.921875 228.289062 114.671875 226.996094 115.480469 224.40625 C 116.289062 221.820312 114.996094 219.074219 112.410156 218.265625 C 109.496094 217.292969 106.910156 215.675781 104.484375 213.574219 C 98.175781 208.074219 94.78125 199.503906 95.589844 191.253906 C 96.398438 183.492188 100.765625 176.863281 108.042969 172.65625 C 109.175781 172.011719 109.984375 170.882812 110.308594 169.589844 C 110.632812 168.292969 110.46875 167 109.660156 165.867188 C 101.738281 153.089844 106.585938 140.316406 114.835938 133.363281 C 123.082031 126.410156 136.507812 123.820312 147.664062 133.84375 C 148.636719 134.652344 149.925781 135.140625 151.222656 135.140625 C 152.515625 134.980469 153.808594 134.496094 154.617188 133.363281 C 164.644531 122.203125 178.230469 122.851562 187.445312 128.511719 C 196.664062 134.171875 203.132812 146.140625 197.148438 159.886719 C 196.664062 161.015625 196.664062 162.46875 197.148438 163.601562 C 197.636719 164.734375 198.605469 165.707031 199.738281 166.355469 C 213.644531 172.015625 217.203125 185.113281 214.617188 195.625 C 212.027344 206.136719 202.648438 216 187.769531 214.542969 C 186.476562 214.382812 185.183594 214.871094 184.210938 215.679688 C 183.242188 216.488281 182.597656 217.78125 182.433594 219.074219 C 181.300781 233.953125 169.980469 241.550781 159.144531 242.195312 C 148.3125 243.003906 136.019531 237.183594 132.785156 222.46875 C 132.136719 219.882812 129.550781 218.261719 126.964844 218.746094 C 124.375 219.394531 122.761719 221.984375 123.246094 224.574219 C 127.449219 243.65625 142.8125 251.898438 157.042969 251.898438 C 157.851562 251.898438 158.824219 251.902344 159.632812 251.738281 C 171.761719 250.929688 184.535156 243.8125 189.710938 230.066406 C 197.796875 241.550781 204.105469 254.167969 208.46875 267.589844 C 209.117188 269.691406 211.058594 270.984375 213 270.984375 C 213.484375 270.984375 213.96875 270.984375 214.453125 270.664062 L 214.617188 270.664062 C 215.261719 270.5 215.910156 270.011719 216.554688 269.527344 L 248.898438 237.183594 C 250.839844 235.242188 250.839844 232.171875 248.898438 230.394531 C 246.960938 228.453125 243.886719 228.453125 242.109375 230.394531 L 215.101562 257.398438 C 210.570312 245.433594 204.589844 234.277344 197.148438 223.765625 C 211.703125 221.175781 220.921875 209.855469 223.832031 197.890625 C 227.230469 184.464844 223.1875 167.96875 207.5 159.238281 C 212.835938 142.09375 204.101562 127.375 192.460938 120.097656 C 186.636719 116.542969 179.519531 114.4375 172.203125 114.742188 Z M 155.101562 161.664062 C 143.460938 161.664062 134.078125 171.042969 134.078125 182.6875 C 134.078125 194.332031 143.460938 203.710938 155.101562 203.710938 C 166.746094 203.710938 176.125 194.332031 176.125 182.6875 C 176.125 171.042969 166.746094 161.664062 155.101562 161.664062 Z M 155.101562 171.367188 C 161.410156 171.367188 166.421875 176.378906 166.421875 182.6875 C 166.421875 188.992188 161.410156 194.007812 155.101562 194.007812 C 148.796875 194.007812 143.78125 188.992188 143.78125 182.6875 C 143.78125 176.378906 148.796875 171.367188 155.101562 171.367188 Z M 187.765625 277.472656 C 185.929688 277.382812 184.050781 278.382812 183.082031 280.199219 C 181.949219 282.625 182.917969 285.539062 185.183594 286.667969 L 215.261719 301.710938 C 215.585938 305.429688 215.746094 309.3125 215.746094 313.03125 C 215.746094 315.78125 217.851562 317.882812 220.597656 317.882812 C 223.347656 317.882812 225.449219 315.78125 225.449219 313.03125 C 225.449219 303.167969 224.480469 293.304688 222.539062 283.601562 C 222.054688 281.011719 219.464844 279.234375 216.878906 279.71875 C 214.289062 280.203125 212.515625 282.789062 213 285.378906 C 213.324219 286.996094 213.484375 288.453125 213.808594 290.070312 L 189.550781 277.941406 C 188.984375 277.65625 188.378906 277.503906 187.765625 277.472656 Z M 187.765625 277.472656"/></svg>